<svg id="Layer_1" data-name="Layer 1" xmlns="http://www.w3.org/2000/svg" viewBox="0 0 296.45 85.07"><defs><style>.cls-1{fill:#fff;stroke:#231f20;stroke-miterlimit:10;stroke-width:0.75px;}.cls-2,.cls-3{fill:#c04646;}.cls-3{font-size:34.87px;font-family:Poppins-SemiBold, Poppins;font-weight:600;}</style></defs><path class="cls-1" d="M185.72,419.62A37.15,37.15,0,0,1,164.34,444H135.53a37.13,37.13,0,0,1-21.38-24.37,3.08,3.08,0,0,1,3-3.9h65.64a3.08,3.08,0,0,1,3,3.9M194.37,405l-52.05-10.58,52.33-10.72c1.85-.38,3.21-1.5,3-2.51s-1.93-1.45-3.77-1l-56.6,13.23-2.17-.44a.67.67,0,0,0-1.08.15c-.93,1.81.11,3.18.44,5s-1.66,3.27-1.24,5.26c.17.78.86,1.23,1.12,1.92.59,1.52-.17,2.62-.32,4.07-.2,1.81,1.55,3.23,1.64,4.91h1.42a7.41,7.41,0,0,0-1.05-2.85c-1.14-2.23,1-3.9.08-6-.47-1.11-1.68-1.68-1.4-3.14.17-.85.94-1.62,1.22-2.46.44-1.31-.32-2.65-.69-3.91l.7-.14c.13,1,.58,1.88.78,3,.34,1.94-1.66,3.27-1.24,5.26.17.78.86,1.23,1.12,1.92.59,1.51-.17,2.62-.32,4.06s1.16,2.89,1.54,4.32h1.44a10,10,0,0,0-1-2.25c-1.14-2.24,1-3.9.08-6.05-.47-1.11-1.68-1.67-1.4-3.14.17-.85.94-1.62,1.22-2.45.56-1.67-.83-3.4-.88-4.93l.17,0,1.56.36c.09,1,.59,2,.8,3.16.34,1.94-1.66,3.27-1.24,5.26.17.78.85,1.23,1.12,1.92.59,1.52-.17,2.62-.32,4.07s1,2.74,1.48,4.08h1.43a12.85,12.85,0,0,0-.9-2c-1.14-2.24,1-3.9.08-6-.47-1.11-1.68-1.68-1.4-3.14.17-.86.93-1.62,1.22-2.46.51-1.51-.59-3.07-.83-4.49l53.11,12.41c1.85.43,3.56,0,3.78-1s-1.15-2.13-3-2.51Z" transform="translate(-113.66 -379.6)"/><polyline class="cls-2" points="48.98 52.23 46.31 50.85 47.44 46.88 43.8 47.57 43.03 45.34 39.26 48.99 41.24 41.29 38.61 42.47 36.3 38.13 34 42.47 31.36 41.29 33.35 48.99 29.58 45.34 28.81 47.57 25.17 46.88 26.3 50.85 23.63 52.23 30.64 57.09 29.97 59.92 35.58 58.71 35.58 61.58 37.03 61.58 37.03 58.71 42.64 59.92 41.97 57.09 48.98 52.23"/><text class="cls-3" transform="translate(77.27 64.39)">Pho Canada</text></svg>