<svg id="Layer_1" data-name="Layer 1" xmlns="http://www.w3.org/2000/svg" viewBox="0 0 117.34 90"><defs><style>.cls-1{fill:#fff;stroke:#231f20;stroke-miterlimit:10;stroke-width:0.75px;}.cls-2{fill:#c04646;}</style></defs><path class="cls-1" d="M339.75,431.15a51.83,51.83,0,0,1-29.8,34H269.77a51.83,51.83,0,0,1-29.8-34,4.29,4.29,0,0,1,4.14-5.44h91.51a4.3,4.3,0,0,1,4.14,5.44m12.05-20.44L279.24,396l73-15c2.57-.53,4.48-2.1,4.17-3.5s-2.7-2-5.26-1.42L272.2,394.54l-3-.62a.92.92,0,0,0-1.5.22c-1.3,2.53.16,4.43.61,7,.49,2.7-2.31,4.56-1.72,7.34.23,1.08,1.19,1.71,1.57,2.67.82,2.11-.24,3.65-.46,5.66-.28,2.53,2.16,4.51,2.29,6.86h2a10.15,10.15,0,0,0-1.47-4c-1.58-3.11,1.37-5.43.11-8.41-.64-1.56-2.34-2.34-1.94-4.38.23-1.19,1.3-2.26,1.69-3.43.62-1.82-.44-3.7-1-5.45l1-.2c.19,1.33.81,2.63,1.08,4.15.49,2.7-2.31,4.56-1.72,7.33.23,1.09,1.19,1.72,1.56,2.68.82,2.11-.23,3.65-.45,5.66-.24,2.23,1.62,4,2.16,6h2a14,14,0,0,0-1.36-3.15c-1.58-3.12,1.37-5.43.12-8.42-.65-1.55-2.35-2.34-1.95-4.38.23-1.19,1.3-2.26,1.7-3.42.78-2.33-1.16-4.73-1.22-6.87l.23,0,2.17.51c.13,1.43.82,2.78,1.11,4.41.49,2.7-2.31,4.56-1.72,7.33.23,1.09,1.19,1.72,1.57,2.68.82,2.11-.24,3.65-.46,5.66s1.43,3.83,2.06,5.7h2a16.7,16.7,0,0,0-1.27-2.82c-1.58-3.12,1.36-5.43.11-8.42-.64-1.55-2.34-2.34-1.94-4.38.23-1.19,1.3-2.26,1.69-3.43.72-2.1-.82-4.28-1.15-6.26l74.05,17.3c2.57.6,4.95,0,5.26-1.42s-1.59-3-4.18-3.5Z" transform="translate(-239.44 -375.5)"/><polyline class="cls-2" points="68.14 72.66 64.41 70.74 65.99 65.21 60.91 66.17 59.84 63.06 54.59 68.15 57.35 57.42 53.68 59.05 50.47 53.01 47.25 59.05 43.58 57.42 46.34 68.15 41.09 63.06 40.02 66.17 34.94 65.21 36.52 70.74 32.79 72.66 42.56 79.44 41.63 83.39 49.45 81.7 49.45 85.7 51.48 85.7 51.48 81.7 59.3 83.39 58.37 79.44 68.14 72.66"/></svg>